<svg width="23" height="23" viewBox="0 0 23 23" version="1.1" xmlns="http://www.w3.org/2000/svg" xmlns:xlink="http://www.w3.org/1999/xlink">
<title>loupe</title>
<desc>Created using Figma</desc>
<g id="Canvas" transform="translate(-1538 -1006)">
<g id="loupe">
<use xlink:href="#path0_stroke" transform="translate(1540.04 1008.23)" fill="#37B370"/>
</g>
</g>
<defs>
<path id="path0_stroke" d="M 15.1151 12.9938C 14.5293 12.408 13.5795 12.408 12.9937 12.9938C 12.408 13.5796 12.408 14.5293 12.9937 15.1151L 15.1151 12.9938ZM 17.7455 19.8669C 18.3313 20.4527 19.2811 20.4527 19.8669 19.8669C 20.4527 19.2811 20.4527 18.3314 19.8669 17.7456L 17.7455 19.8669ZM 8.08722 17.6744C 13.3821 17.6744 17.6744 13.3821 17.6744 8.08722L 14.6744 8.08722C 14.6744 11.7252 11.7252 14.6744 8.08722 14.6744L 8.08722 17.6744ZM 17.6744 8.08722C 17.6744 2.79234 13.3821 -1.5 8.08722 -1.5L 8.08722 1.5C 11.7252 1.5 14.6744 4.4492 14.6744 8.08722L 17.6744 8.08722ZM 8.08722 -1.5C 2.79234 -1.5 -1.5 2.79234 -1.5 8.08722L 1.5 8.08722C 1.5 4.4492 4.4492 1.5 8.08722 1.5L 8.08722 -1.5ZM -1.5 8.08722C -1.5 13.3821 2.79234 17.6744 8.08722 17.6744L 8.08722 14.6744C 4.4492 14.6744 1.5 11.7252 1.5 8.08722L -1.5 8.08722ZM 12.9937 15.1151L 17.7455 19.8669L 19.8669 17.7456L 15.1151 12.9938L 12.9937 15.1151Z"/>
</defs>
</svg>
