<svg width="24" height="25" viewBox="0 0 24 25" version="1.1" xmlns="http://www.w3.org/2000/svg" xmlns:xlink="http://www.w3.org/1999/xlink">
<title>phone</title>
<desc>Created using Figma</desc>
<g id="Canvas" transform="translate(-879 -1005)">
<g id="phone">
<use xlink:href="#path0_fill" transform="translate(879.172 1005.82)" fill="#4A90E2"/>
</g>
</g>
<defs>
<path id="path0_fill" fill-rule="evenodd" d="M 13.2311 8.9624L 10.5848 8.9624L 10.5848 11.6086L 13.2311 11.6086L 13.2311 8.9624ZM 18.5235 8.9624L 15.8773 8.9624L 15.8773 11.6086L 18.5235 11.6086L 18.5235 8.9624ZM 22.4928 16.5388C 20.8455 16.5388 19.2578 16.2742 17.7693 15.7847C 17.3128 15.6391 16.7902 15.745 16.4264 16.1088L 13.5155 19.0263C 9.76453 17.121 6.70815 14.058 4.79626 10.3136L 7.7071 7.39617C 8.07095 7.03231 8.1768 6.50968 8.03126 6.05321C 7.54171 4.56472 7.27709 2.97037 7.27709 1.32311C 7.27709 0.588782 6.6883 0 5.95398 0L 1.32311 0C 0.588782 0 0 0.588782 0 1.32311C 0 13.7471 10.0688 23.8159 22.4928 23.8159C 23.2271 23.8159 23.8159 23.2271 23.8159 22.4928L 23.8159 17.8619C 23.8159 17.1276 23.2271 16.5388 22.4928 16.5388ZM 21.1697 8.9624L 21.1697 11.6086L 23.8159 11.6086L 23.8159 8.9624L 21.1697 8.9624Z"/>
</defs>
</svg>
