<svg width="26" height="26" viewBox="0 0 26 26" version="1.1" xmlns="http://www.w3.org/2000/svg" xmlns:xlink="http://www.w3.org/1999/xlink">
<title>quest</title>
<desc>Created using Figma</desc>
<g id="Canvas" transform="translate(-1115 -1008)">
<g id="quest">
<use xlink:href="#path0_fill" transform="translate(1115.06 1008.13)" fill="#FF6F00"/>
</g>
</g>
<defs>
<path id="path0_fill" fill-rule="evenodd" d="M 22.6863 0L 2.5207 0C 1.12801 0 0.0126035 1.12801 0.0126035 2.5207L 0 25.207L 5.04141 20.1656L 22.6863 20.1656C 24.079 20.1656 25.207 19.0376 25.207 17.6449L 25.207 2.5207C 25.207 1.12801 24.079 0 22.6863 0ZM 20.1656 14.179L 5.04138 14.179L 5.04138 12.6035L 20.1656 12.6035L 20.1656 14.179ZM 20.1656 10.3979L 5.04138 10.3979L 5.04138 8.82245L 20.1656 8.82245L 20.1656 10.3979ZM 20.1656 6.61682L 5.04138 6.61682L 5.04138 5.04138L 20.1656 5.04138L 20.1656 6.61682Z"/>
</defs>
</svg>
