<svg width="55" height="32" viewBox="0 0 55 32" version="1.1" xmlns="http://www.w3.org/2000/svg" xmlns:xlink="http://www.w3.org/1999/xlink">
<title>vk</title>
<desc>Created using Figma</desc>
<g id="Canvas" transform="translate(-1468 -452)">
<g id="vk">
<use xlink:href="#path0_fill" transform="translate(1468.12 452.453)" fill="#FFFFFF" fill-opacity="0.253623"/>
</g>
</g>
<defs>
<path id="path0_fill" fill-rule="evenodd" d="M 29.2979 5.82926e-05C 29.927 -0.00293984 30.7449 0.109146 31.2619 0.467665C 31.6429 0.731961 32.1442 1.03784 32.1503 2.22899C 32.1705 6.12591 32.1233 9.52039 32.1815 13.4983C 32.2574 14.3264 32.7954 14.6698 33.3038 14.6674C 33.8121 14.6649 34.3952 14.3471 34.8313 13.9192C 37.1928 11.6007 39.9134 6.0243 41.5804 2.36927C 42.2025 1.00529 43.2064 1.09281 44.3393 1.09114C 48.1323 1.08556 49.6682 1.13354 53.2239 1.15349C 53.875 1.15699 54.4424 1.707 54.6267 2.10429C 54.7858 2.44737 54.8999 3.44121 54.0344 4.8476C 51.3718 9.17417 48.9238 12.6583 45.9603 16.7716C 45.7734 17.031 45.5958 17.3403 45.6018 17.6601C 45.6074 17.9524 45.7589 18.2431 45.9603 18.455C 48.6026 21.2346 51.3608 24.0316 54.0655 27.0902C 54.8625 27.9913 54.3621 29.3815 54.1435 29.7711C 53.9779 30.0662 53.2298 30.827 52.7251 30.831C 50.887 30.8457 50.8824 30.831 43.1859 30.831C 42.0461 30.831 41.5911 30.4981 40.9881 29.8646C 38.3196 27.0612 38.6484 27.3998 35.7197 24.2689C 35.3392 23.8622 34.5851 23.351 33.8649 23.6766C 33.2535 23.953 32.1347 24.3607 32.1347 25.4847C 32.1347 26.6838 32.1347 28.2235 32.1347 29.4126C 32.1347 30.126 31.0153 30.6596 30.3422 30.6596C 28.7533 30.6596 27.4851 30.6596 25.105 30.6596C 22.6395 30.6596 20.5054 30.065 19.3223 29.4905C 14.2252 27.0155 11.1949 23.5684 7.88146 17.8315C 5.05206 12.9328 2.59007 8.10972 0.165928 3.0551C -0.104901 2.49038 -0.297352 1.24701 1.72462 1.24701C 3.86078 1.24701 5.86409 1.20028 9.11283 1.20028C 10.0665 1.20028 10.6597 1.3923 11.0612 1.68347C 11.4627 1.97464 11.6601 2.36277 11.8561 2.7278C 15.8979 10.2538 15.9071 10.7145 18.7923 14.4492C 19.0632 14.7998 19.4538 14.8529 19.7431 14.8544C 20.1006 14.8564 20.4313 14.7983 20.7095 14.5739C 21.2936 14.1026 21.4577 13.5979 21.4577 12.8749C 21.4577 10.3414 21.4577 8.44856 21.4577 5.26847C 21.4577 4.3963 20.8669 3.10339 20.2107 2.69662C 19.531 2.30532 18.4136 1.91763 18.4494 1.43408C 18.4885 0.905203 19.7193 0.0156693 21.9097 0.0156693C 24.5286 0.0156693 26.3847 0.0136797 29.2979 0.000108031L 29.2979 5.82926e-05Z"/>
</defs>
</svg>
