<svg width="50" height="195" viewBox="0 0 50 195" version="1.1" xmlns="http://www.w3.org/2000/svg" xmlns:xlink="http://www.w3.org/1999/xlink">
<title>logo</title>
<desc>Created using Figma</desc>
<g id="Canvas" transform="translate(-276 -160)">
<g id="logo">
<g id="Fill 1">
<use xlink:href="#path0_fill" transform="matrix(-1.83697e-16 1 -1 -1.83697e-16 322.961 160)" fill="#1C5394"/>
</g>
<g id="DAGNET">
<use xlink:href="#path1_fill" transform="matrix(3.06162e-16 -1 1 3.06162e-16 271 356.281)" fill="#4A4A4A"/>
</g>
<g id="Type something">
<use xlink:href="#path2_fill" transform="matrix(3.06162e-16 -1 1 3.06162e-16 311.984 354)" fill="#4A4A4A"/>
</g>
</g>
</g>
<defs>
<path id="path0_fill" fill-rule="evenodd" d="M 12.5695 3.02182C 12.5695 3.02182 23.131 -3.73123 36.0874 2.9531C 36.0874 2.9531 51.1444 12.2189 45.6084 23.6736C 45.6084 23.6736 41.4663 31.3689 32.6717 26.736C 32.6717 26.736 28.1074 24.1447 28.8534 16.2825C 29.6092 8.27311 23.2684 4.65119 23.2684 4.65119C 23.2684 4.65119 18.1251 1.4808 12.5695 3.02182ZM 12.1475 40.1047C 11.2052 38.9367 10.1451 31.0549 16.2504 28.5814C 16.2504 28.5814 21.1581 26.1275 27.3026 30.4561C 32.8778 34.3921 40.367 31.3395 40.367 31.3395C 40.367 31.3395 47.6697 27.8158 48.082 22.4467C 48.082 22.4467 48.4157 37.2386 34.036 44.3941C 34.036 44.3941 22.1887 49.665 14.6897 43.5598L 12.1475 40.1047ZM 12.8345 43.6383C 12.8345 43.6383 -0.661749 36.7576 0.0253741 22.3093C 0.0253741 22.3093 0.231473 6.15295 13.8652 4.18004C 13.8652 4.18004 23.7494 3.42425 23.3371 13.9955C 23.3371 13.9955 23.0525 20.7584 15.9068 22.3779C 7.18086 24.3508 8.27036 33.1455 8.27036 33.1455C 8.27036 33.1455 8.6139 39.7612 12.8345 43.6383Z"/>
<path id="path1_fill" d="M 1.82617 32L 1.82617 7.82812L 9.6123 7.82812C 11.7484 7.82812 13.6686 8.3151 15.373 9.28906C 17.0775 10.252 18.4056 11.6188 19.3574 13.3896C 20.3203 15.1494 20.8073 17.125 20.8184 19.3164L 20.8184 20.4287C 20.8184 22.6423 20.348 24.6289 19.4072 26.3887C 18.4775 28.1374 17.1605 29.5098 15.4561 30.5059C 13.7627 31.4909 11.8701 31.9889 9.77832 32L 1.82617 32ZM 7.65332 12.3271L 7.65332 27.5176L 9.67871 27.5176C 11.3499 27.5176 12.6338 26.9255 13.5303 25.7412C 14.4268 24.5459 14.875 22.7751 14.875 20.4287L 14.875 19.3828C 14.875 17.0475 14.4268 15.2878 13.5303 14.1035C 12.6338 12.9193 11.3278 12.3271 9.6123 12.3271L 7.65332 12.3271ZM 37.1709 27.4844L 29.1855 27.4844L 27.791 32L 21.5654 32L 30.4307 7.82812L 35.9092 7.82812L 44.8408 32L 38.582 32L 37.1709 27.4844ZM 30.5801 22.9854L 35.7764 22.9854L 33.1699 14.6016L 30.5801 22.9854ZM 66.041 29.0117C 65.1445 30.0078 63.833 30.8102 62.1064 31.4189C 60.3799 32.0277 58.4873 32.332 56.4287 32.332C 53.2633 32.332 50.7344 31.3636 48.8418 29.4268C 46.9492 27.4899 45.9365 24.7949 45.8037 21.3418L 45.7871 19.25C 45.7871 16.8704 46.2077 14.7952 47.0488 13.0244C 47.89 11.2425 49.0908 9.87565 50.6514 8.92383C 52.223 7.96094 54.0381 7.47949 56.0967 7.47949C 59.1071 7.47949 61.4424 8.17122 63.1025 9.55469C 64.7738 10.9271 65.7477 12.9801 66.0244 15.7139L 60.4131 15.7139C 60.2139 14.3636 59.7822 13.4007 59.1182 12.8252C 58.4541 12.2497 57.5133 11.9619 56.2959 11.9619C 54.835 11.9619 53.7061 12.5817 52.9092 13.8213C 52.1123 15.0609 51.7083 16.8317 51.6973 19.1338L 51.6973 20.5947C 51.6973 23.0075 52.1068 24.8226 52.9258 26.04C 53.7559 27.2464 55.0563 27.8496 56.8271 27.8496C 58.3434 27.8496 59.4723 27.512 60.2139 26.8369L 60.2139 23.085L 56.1631 23.085L 56.1631 19.084L 66.041 19.084L 66.041 29.0117ZM 89.6152 32L 83.8213 32L 75.2549 16.959L 75.2549 32L 69.4277 32L 69.4277 7.82812L 75.2549 7.82812L 83.8047 22.8691L 83.8047 7.82812L 89.6152 7.82812L 89.6152 32ZM 108.292 21.7568L 99.1279 21.7568L 99.1279 27.5176L 109.952 27.5176L 109.952 32L 93.3008 32L 93.3008 7.82812L 109.985 7.82812L 109.985 12.3271L 99.1279 12.3271L 99.1279 17.4238L 108.292 17.4238L 108.292 21.7568ZM 131.634 12.3271L 124.379 12.3271L 124.379 32L 118.552 32L 118.552 12.3271L 111.43 12.3271L 111.43 7.82812L 131.634 7.82812L 131.634 12.3271Z"/>
<path id="path2_fill" d="M 2.03101 11L 0.992188 11L 0.992188 4.92432L 2.03101 4.92432L 2.03101 11ZM 0.907959 3.31274C 0.907959 3.14429 0.958496 3.00203 1.05957 2.88599C 1.16439 2.76994 1.31787 2.71191 1.52002 2.71191C 1.72217 2.71191 1.87565 2.76994 1.98047 2.88599C 2.08529 3.00203 2.1377 3.14429 2.1377 3.31274C 2.1377 3.4812 2.08529 3.62158 1.98047 3.73389C 1.87565 3.84619 1.72217 3.90234 1.52002 3.90234C 1.31787 3.90234 1.16439 3.84619 1.05957 3.73389C 0.958496 3.62158 0.907959 3.4812 0.907959 3.31274ZM 4.6814 4.92432L 4.71509 5.68799C 5.17928 5.104 5.78573 4.81201 6.53442 4.81201C 7.81844 4.81201 8.46606 5.53638 8.47729 6.98511L 8.47729 11L 7.43848 11L 7.43848 6.97949C 7.43473 6.5415 7.33366 6.21769 7.13525 6.00806C 6.94059 5.79842 6.6355 5.6936 6.21997 5.6936C 5.88306 5.6936 5.58732 5.78345 5.33276 5.96313C 5.07821 6.14282 4.8798 6.37866 4.73755 6.67065L 4.73755 11L 3.69873 11L 3.69873 4.92432L 4.6814 4.92432ZM 11.4534 3.45312L 11.4534 4.92432L 12.5876 4.92432L 12.5876 5.72729L 11.4534 5.72729L 11.4534 9.49512C 11.4534 9.73844 11.5039 9.92188 11.605 10.0454C 11.7061 10.1652 11.8783 10.2251 12.1216 10.2251C 12.2414 10.2251 12.4061 10.2026 12.6157 10.1577L 12.6157 11C 12.3424 11.0749 12.0767 11.1123 11.8184 11.1123C 11.3542 11.1123 11.0042 10.9719 10.7683 10.6912C 10.5325 10.4104 10.4146 10.0117 10.4146 9.49512L 10.4146 5.72729L 9.30835 5.72729L 9.30835 4.92432L 10.4146 4.92432L 10.4146 3.45312L 11.4534 3.45312ZM 16.3274 11.1123C 15.5038 11.1123 14.8337 10.8428 14.3171 10.3037C 13.8005 9.7609 13.5422 9.03654 13.5422 8.13062L 13.5422 7.9397C 13.5422 7.337 13.6564 6.7998 13.8848 6.32812C 14.1169 5.8527 14.4388 5.4821 14.8506 5.21631C 15.2661 4.94678 15.7153 4.81201 16.1982 4.81201C 16.9881 4.81201 17.6021 5.07218 18.04 5.59253C 18.478 6.11287 18.697 6.85783 18.697 7.82739L 18.697 8.25977L 14.5811 8.25977C 14.596 8.85872 14.7701 9.34351 15.1033 9.71411C 15.4402 10.081 15.8669 10.2644 16.3835 10.2644C 16.7504 10.2644 17.0611 10.1895 17.3157 10.0398C 17.5702 9.89006 17.793 9.69165 17.9839 9.44458L 18.6184 9.93872C 18.1093 10.7211 17.3456 11.1123 16.3274 11.1123ZM 16.1982 5.66553C 15.779 5.66553 15.4271 5.81901 15.1426 6.12598C 14.8581 6.4292 14.6821 6.85596 14.6147 7.40625L 17.6582 7.40625L 17.6582 7.32764C 17.6283 6.7998 17.486 6.39176 17.2314 6.10352C 16.9769 5.81152 16.6325 5.66553 16.1982 5.66553ZM 22.8411 5.85645C 22.6838 5.83024 22.5135 5.81714 22.3301 5.81714C 21.6488 5.81714 21.1864 6.10726 20.9431 6.6875L 20.9431 11L 19.9043 11L 19.9043 4.92432L 20.915 4.92432L 20.9319 5.62622C 21.2725 5.08341 21.7555 4.81201 22.3806 4.81201C 22.5828 4.81201 22.7362 4.83822 22.8411 4.89062L 22.8411 5.85645ZM 24.7839 4.92432L 24.8176 5.68799C 25.2818 5.104 25.8883 4.81201 26.637 4.81201C 27.921 4.81201 28.5686 5.53638 28.5798 6.98511L 28.5798 11L 27.541 11L 27.541 6.97949C 27.5373 6.5415 27.4362 6.21769 27.2378 6.00806C 27.0431 5.79842 26.738 5.6936 26.3225 5.6936C 25.9856 5.6936 25.6899 5.78345 25.4353 5.96313C 25.1807 6.14282 24.9823 6.37866 24.8401 6.67065L 24.8401 11L 23.8013 11L 23.8013 4.92432L 24.7839 4.92432ZM 32.6677 11.1123C 31.8442 11.1123 31.1741 10.8428 30.6575 10.3037C 30.1409 9.7609 29.8826 9.03654 29.8826 8.13062L 29.8826 7.9397C 29.8826 7.337 29.9967 6.7998 30.2251 6.32812C 30.4572 5.8527 30.7791 5.4821 31.1909 5.21631C 31.6064 4.94678 32.0557 4.81201 32.5386 4.81201C 33.3285 4.81201 33.9424 5.07218 34.3804 5.59253C 34.8184 6.11287 35.0374 6.85783 35.0374 7.82739L 35.0374 8.25977L 30.9214 8.25977C 30.9364 8.85872 31.1104 9.34351 31.4436 9.71411C 31.7805 10.081 32.2073 10.2644 32.7239 10.2644C 33.0907 10.2644 33.4014 10.1895 33.656 10.0398C 33.9106 9.89006 34.1333 9.69165 34.3242 9.44458L 34.9587 9.93872C 34.4496 10.7211 33.686 11.1123 32.6677 11.1123ZM 32.5386 5.66553C 32.1193 5.66553 31.7674 5.81901 31.4829 6.12598C 31.1984 6.4292 31.0225 6.85596 30.9551 7.40625L 33.9985 7.40625L 33.9985 7.32764C 33.9686 6.7998 33.8263 6.39176 33.5718 6.10352C 33.3172 5.81152 32.9728 5.66553 32.5386 5.66553ZM 37.6541 3.45312L 37.6541 4.92432L 38.7883 4.92432L 38.7883 5.72729L 37.6541 5.72729L 37.6541 9.49512C 37.6541 9.73844 37.7046 9.92188 37.8057 10.0454C 37.9067 10.1652 38.0789 10.2251 38.3223 10.2251C 38.4421 10.2251 38.6068 10.2026 38.8164 10.1577L 38.8164 11C 38.5431 11.0749 38.2773 11.1123 38.019 11.1123C 37.5549 11.1123 37.2048 10.9719 36.969 10.6912C 36.7332 10.4104 36.6152 10.0117 36.6152 9.49512L 36.6152 5.72729L 35.509 5.72729L 35.509 4.92432L 36.6152 4.92432L 36.6152 3.45312L 37.6541 3.45312ZM 46.397 9.38843C 46.397 9.10767 46.2903 8.89054 46.0769 8.73706C 45.8673 8.57983 45.4985 8.44507 44.9707 8.33276C 44.4466 8.22046 44.0292 8.08569 43.7185 7.92847C 43.4115 7.77124 43.1832 7.58407 43.0334 7.36694C 42.8875 7.14982 42.8145 6.89152 42.8145 6.59204C 42.8145 6.09416 43.0241 5.67301 43.4434 5.32861C 43.8664 4.98421 44.4054 4.81201 45.0605 4.81201C 45.7493 4.81201 46.3071 4.98983 46.7339 5.34546C 47.1644 5.70109 47.3796 6.15592 47.3796 6.70996L 46.3352 6.70996C 46.3352 6.42546 46.2135 6.18026 45.9702 5.97437C 45.7306 5.76847 45.4274 5.66553 45.0605 5.66553C 44.6825 5.66553 44.3867 5.74788 44.1733 5.9126C 43.96 6.07731 43.8533 6.29256 43.8533 6.55835C 43.8533 6.80916 43.9525 6.99821 44.1509 7.12549C 44.3493 7.25277 44.7068 7.37443 45.2234 7.49048C 45.7437 7.60653 46.1649 7.74504 46.4868 7.90601C 46.8088 8.06698 47.0465 8.26164 47.2 8.48999C 47.3572 8.7146 47.4358 8.98975 47.4358 9.31543C 47.4358 9.85824 47.2187 10.2944 46.7844 10.6238C 46.3502 10.9495 45.7868 11.1123 45.0942 11.1123C 44.6076 11.1123 44.1771 11.0262 43.8027 10.854C 43.4284 10.6818 43.1345 10.4422 42.9211 10.1353C 42.7115 9.82454 42.6067 9.4895 42.6067 9.13013L 43.6455 9.13013C 43.6642 9.47827 43.8027 9.75529 44.061 9.96118C 44.3231 10.1633 44.6675 10.2644 45.0942 10.2644C 45.4873 10.2644 45.8018 10.1858 46.0376 10.0286C 46.2772 9.86759 46.397 9.65422 46.397 9.38843ZM 51.3103 11.1123C 50.4867 11.1123 49.8167 10.8428 49.3 10.3037C 48.7834 9.7609 48.5251 9.03654 48.5251 8.13062L 48.5251 7.9397C 48.5251 7.337 48.6393 6.7998 48.8677 6.32812C 49.0998 5.8527 49.4217 5.4821 49.8335 5.21631C 50.249 4.94678 50.6982 4.81201 51.1812 4.81201C 51.971 4.81201 52.585 5.07218 53.0229 5.59253C 53.4609 6.11287 53.6799 6.85783 53.6799 7.82739L 53.6799 8.25977L 49.564 8.25977C 49.5789 8.85872 49.753 9.34351 50.0862 9.71411C 50.4231 10.081 50.8499 10.2644 51.3665 10.2644C 51.7333 10.2644 52.044 10.1895 52.2986 10.0398C 52.5531 9.89006 52.7759 9.69165 52.9668 9.44458L 53.6013 9.93872C 53.0922 10.7211 52.3285 11.1123 51.3103 11.1123ZM 51.1812 5.66553C 50.7619 5.66553 50.41 5.81901 50.1255 6.12598C 49.841 6.4292 49.665 6.85596 49.5977 7.40625L 52.6411 7.40625L 52.6411 7.32764C 52.6112 6.7998 52.4689 6.39176 52.2144 6.10352C 51.9598 5.81152 51.6154 5.66553 51.1812 5.66553ZM 57.824 5.85645C 57.6667 5.83024 57.4964 5.81714 57.313 5.81714C 56.6317 5.81714 56.1694 6.10726 55.926 6.6875L 55.926 11L 54.8872 11L 54.8872 4.92432L 55.8979 4.92432L 55.9148 5.62622C 56.2555 5.08341 56.7384 4.81201 57.3635 4.81201C 57.5657 4.81201 57.7192 4.83822 57.824 4.89062L 57.824 5.85645ZM 60.8899 9.59058L 62.3948 4.92432L 63.4561 4.92432L 61.2773 11L 60.4856 11L 58.2844 4.92432L 59.3457 4.92432L 60.8899 9.59058ZM 65.5842 11L 64.5454 11L 64.5454 4.92432L 65.5842 4.92432L 65.5842 11ZM 64.4612 3.31274C 64.4612 3.14429 64.5117 3.00203 64.6128 2.88599C 64.7176 2.76994 64.8711 2.71191 65.0732 2.71191C 65.2754 2.71191 65.4289 2.76994 65.5337 2.88599C 65.6385 3.00203 65.6909 3.14429 65.6909 3.31274C 65.6909 3.4812 65.6385 3.62158 65.5337 3.73389C 65.4289 3.84619 65.2754 3.90234 65.0732 3.90234C 64.8711 3.90234 64.7176 3.84619 64.6128 3.73389C 64.5117 3.62158 64.4612 3.4812 64.4612 3.31274ZM 69.689 10.2644C 70.0596 10.2644 70.3834 10.1521 70.6604 9.92749C 70.9374 9.70288 71.0909 9.42212 71.1208 9.08521L 72.1035 9.08521C 72.0848 9.43335 71.965 9.76465 71.7441 10.0791C 71.5233 10.3936 71.2275 10.6444 70.8569 10.8315C 70.4901 11.0187 70.1007 11.1123 69.689 11.1123C 68.8617 11.1123 68.2028 10.8372 67.7124 10.2869C 67.2257 9.73283 66.9824 8.97664 66.9824 8.01831L 66.9824 7.84424C 66.9824 7.25277 67.091 6.72681 67.3081 6.26636C 67.5252 5.80591 67.8359 5.4484 68.2402 5.19385C 68.6483 4.93929 69.1293 4.81201 69.6833 4.81201C 70.3647 4.81201 70.9299 5.01603 71.3792 5.42407C 71.8321 5.83211 72.0736 6.36182 72.1035 7.01318L 71.1208 7.01318C 71.0909 6.62012 70.9412 6.29818 70.6716 6.04736C 70.4058 5.79281 70.0764 5.66553 69.6833 5.66553C 69.1555 5.66553 68.7456 5.85645 68.4536 6.23828C 68.1654 6.61637 68.0212 7.16479 68.0212 7.88354L 68.0212 8.08008C 68.0212 8.78011 68.1654 9.31917 68.4536 9.69727C 68.7419 10.0754 69.1536 10.2644 69.689 10.2644ZM 75.7927 11.1123C 74.9692 11.1123 74.2991 10.8428 73.7825 10.3037C 73.2659 9.7609 73.0076 9.03654 73.0076 8.13062L 73.0076 7.9397C 73.0076 7.337 73.1217 6.7998 73.3501 6.32812C 73.5822 5.8527 73.9041 5.4821 74.3159 5.21631C 74.7314 4.94678 75.1807 4.81201 75.6636 4.81201C 76.4535 4.81201 77.0674 5.07218 77.5054 5.59253C 77.9434 6.11287 78.1624 6.85783 78.1624 7.82739L 78.1624 8.25977L 74.0464 8.25977C 74.0614 8.85872 74.2354 9.34351 74.5686 9.71411C 74.9055 10.081 75.3323 10.2644 75.8489 10.2644C 76.2157 10.2644 76.5264 10.1895 76.781 10.0398C 77.0356 9.89006 77.2583 9.69165 77.4492 9.44458L 78.0837 9.93872C 77.5746 10.7211 76.811 11.1123 75.7927 11.1123ZM 75.6636 5.66553C 75.2443 5.66553 74.8924 5.81901 74.6079 6.12598C 74.3234 6.4292 74.1475 6.85596 74.0801 7.40625L 77.1235 7.40625L 77.1235 7.32764C 77.0936 6.7998 76.9513 6.39176 76.6968 6.10352C 76.4422 5.81152 76.0978 5.66553 75.6636 5.66553ZM 87.3545 8.02954C 87.3545 8.95418 87.143 9.69914 86.72 10.2644C 86.297 10.8297 85.7242 11.1123 85.0017 11.1123C 84.2642 11.1123 83.684 10.8783 83.261 10.4104L 83.261 13.3359L 82.2222 13.3359L 82.2222 4.92432L 83.1711 4.92432L 83.2217 5.59814C 83.6447 5.07406 84.2324 4.81201 84.9849 4.81201C 85.7148 4.81201 86.2913 5.08716 86.7144 5.63745C 87.1411 6.18774 87.3545 6.95329 87.3545 7.93408L 87.3545 8.02954ZM 86.3157 7.91162C 86.3157 7.22656 86.1697 6.68563 85.8777 6.28882C 85.5857 5.89201 85.1851 5.6936 84.676 5.6936C 84.0471 5.6936 83.5754 5.97249 83.261 6.53027L 83.261 9.43335C 83.5717 9.98739 84.0471 10.2644 84.6873 10.2644C 85.1851 10.2644 85.5801 10.0679 85.8721 9.6748C 86.1678 9.27799 86.3157 8.69027 86.3157 7.91162ZM 91.6165 5.85645C 91.4592 5.83024 91.2889 5.81714 91.1055 5.81714C 90.4242 5.81714 89.9618 6.10726 89.7185 6.6875L 89.7185 11L 88.6797 11L 88.6797 4.92432L 89.6904 4.92432L 89.7073 5.62622C 90.0479 5.08341 90.5308 4.81201 91.156 4.81201C 91.3582 4.81201 91.5116 4.83822 91.6165 4.89062L 91.6165 5.85645ZM 92.1892 7.90601C 92.1892 7.31079 92.3053 6.77547 92.5374 6.30005C 92.7732 5.82463 93.0989 5.45776 93.5144 5.19946C 93.9337 4.94116 94.411 4.81201 94.9463 4.81201C 95.7736 4.81201 96.4418 5.09839 96.9509 5.67114C 97.4638 6.2439 97.7202 7.0057 97.7202 7.95654L 97.7202 8.02954C 97.7202 8.62101 97.606 9.15259 97.3777 9.62427C 97.1531 10.0922 96.8293 10.4572 96.4062 10.7192C 95.987 10.9813 95.5041 11.1123 94.9575 11.1123C 94.134 11.1123 93.4657 10.8259 92.9529 10.2532C 92.4438 9.68042 92.1892 8.92236 92.1892 7.979L 92.1892 7.90601ZM 93.2336 8.02954C 93.2336 8.70337 93.389 9.2443 93.6997 9.65234C 94.0142 10.0604 94.4334 10.2644 94.9575 10.2644C 95.4854 10.2644 95.9046 10.0585 96.2153 9.64673C 96.526 9.2312 96.6814 8.65096 96.6814 7.90601C 96.6814 7.23966 96.5223 6.7006 96.2041 6.28882C 95.8896 5.87329 95.4704 5.66553 94.9463 5.66553C 94.4334 5.66553 94.0198 5.86955 93.7053 6.27759C 93.3909 6.68563 93.2336 7.26961 93.2336 8.02954ZM 100.938 9.59058L 102.443 4.92432L 103.504 4.92432L 101.325 11L 100.533 11L 98.3323 4.92432L 99.3936 4.92432L 100.938 9.59058ZM 105.632 11L 104.593 11L 104.593 4.92432L 105.632 4.92432L 105.632 11ZM 104.509 3.31274C 104.509 3.14429 104.56 3.00203 104.661 2.88599C 104.765 2.76994 104.919 2.71191 105.121 2.71191C 105.323 2.71191 105.477 2.76994 105.582 2.88599C 105.686 3.00203 105.739 3.14429 105.739 3.31274C 105.739 3.4812 105.686 3.62158 105.582 3.73389C 105.477 3.84619 105.323 3.90234 105.121 3.90234C 104.919 3.90234 104.765 3.84619 104.661 3.73389C 104.56 3.62158 104.509 3.4812 104.509 3.31274ZM 107.047 7.91162C 107.047 6.97949 107.268 6.23079 107.71 5.66553C 108.151 5.09652 108.73 4.81201 109.445 4.81201C 110.156 4.81201 110.719 5.05534 111.135 5.54199L 111.135 2.375L 112.174 2.375L 112.174 11L 111.219 11L 111.169 10.3486C 110.753 10.8577 110.175 11.1123 109.434 11.1123C 108.73 11.1123 108.155 10.8241 107.71 10.2476C 107.268 9.67106 107.047 8.91862 107.047 7.99023L 107.047 7.91162ZM 108.086 8.02954C 108.086 8.71834 108.228 9.25741 108.513 9.64673C 108.797 10.0361 109.19 10.2307 109.692 10.2307C 110.351 10.2307 110.832 9.93498 111.135 9.34351L 111.135 6.55273C 110.824 5.97998 110.347 5.6936 109.703 5.6936C 109.194 5.6936 108.797 5.89014 108.513 6.2832C 108.228 6.67627 108.086 7.25838 108.086 8.02954ZM 116.312 11.1123C 115.489 11.1123 114.819 10.8428 114.302 10.3037C 113.785 9.7609 113.527 9.03654 113.527 8.13062L 113.527 7.9397C 113.527 7.337 113.641 6.7998 113.87 6.32812C 114.102 5.8527 114.424 5.4821 114.835 5.21631C 115.251 4.94678 115.7 4.81201 116.183 4.81201C 116.973 4.81201 117.587 5.07218 118.025 5.59253C 118.463 6.11287 118.682 6.85783 118.682 7.82739L 118.682 8.25977L 114.566 8.25977C 114.581 8.85872 114.755 9.34351 115.088 9.71411C 115.425 10.081 115.852 10.2644 116.368 10.2644C 116.735 10.2644 117.046 10.1895 117.301 10.0398C 117.555 9.89006 117.778 9.69165 117.969 9.44458L 118.603 9.93872C 118.094 10.7211 117.33 11.1123 116.312 11.1123ZM 116.183 5.66553C 115.764 5.66553 115.412 5.81901 115.127 6.12598C 114.843 6.4292 114.667 6.85596 114.6 7.40625L 117.643 7.40625L 117.643 7.32764C 117.613 6.7998 117.471 6.39176 117.216 6.10352C 116.962 5.81152 116.617 5.66553 116.183 5.66553ZM 122.826 5.85645C 122.669 5.83024 122.498 5.81714 122.315 5.81714C 121.634 5.81714 121.171 6.10726 120.928 6.6875L 120.928 11L 119.889 11L 119.889 4.92432L 120.9 4.92432L 120.917 5.62622C 121.257 5.08341 121.74 4.81201 122.365 4.81201C 122.568 4.81201 122.721 4.83822 122.826 4.89062L 122.826 5.85645Z"/>
</defs>
</svg>
